<?xml version="1.0" standalone="no"?>
<!DOCTYPE svg PUBLIC "-//W3C//DTD SVG 20010904//EN"
 "http://www.w3.org/TR/2001/REC-SVG-20010904/DTD/svg10.dtd">
<svg version="1.0" xmlns="http://www.w3.org/2000/svg"
 width="402.000000pt" height="402.000000pt" viewBox="0 0 402.000000 402.000000"
 preserveAspectRatio="xMidYMid meet">
<metadata>
Created by potrace 1.16, written by Peter Selinger 2001-2019
</metadata>
<g transform="translate(0.000000,402.000000) scale(0.100000,-0.100000)"
fill="#000000" stroke="none">
<path d="M105 4001 c-22 -10 -48 -27 -57 -37 -45 -51 -61 -150 -34 -202 8 -15
337 -349 730 -742 l716 -715 0 -713 c0 -620 2 -717 15 -750 19 -45 772 -804
821 -827 37 -17 110 -20 151 -4 42 15 92 68 103 109 6 22 10 435 10 1110 l0
1075 716 715 c393 393 722 727 730 742 29 56 7 166 -42 210 -57 51 48 48
-1956 48 -1786 0 -1865 -1 -1903 -19z"/>
</g>
</svg>
