<svg version="1.0" xmlns="http://www.w3.org/2000/svg" viewBox="0 0 151 192"><g transform="translate(0,192) scale(0.1,-0.1)" fill="#000" stroke="none"><path d="M591 1904 c-184 -49 -338 -151 -435 -287 -56 -79 -85 -139 -125 -254 l-31 -91 0 -590 c0 -353 4 -601 10 -616 5 -14 18 -34 30 -46 18 -18 32 -20 178 -20 129 0 162 3 181 16 51 36 51 42 51 642 0 606 2 627 56 699 25 33 102 93 118 92 5 0 12 4 16 11 4 6 36 16 72 22 59 10 70 9 119 -10 30 -12 61 -23 69 -24 28 -5 107 -95 136 -154 l29 -59 5 -587 5 -587 29 -30 30 -31 167 0 168 0 20 26 c21 26 21 34 21 643 0 366 -4 634 -10 661 -47 215 -199 408 -404 512 -113 57 -206 78 -340 77 -63 0 -134 -7 -165 -15z m-261 -1689 l0 -105 -105 0 -105 0 0 105 0 105 105 0 105 0 0 -105z m1070 0 l0 -105 -105 0 -105 0 0 105 0 105 105 0 105 0 0 -105z"/></g></svg>